<svg width="550" height="550" viewBox="0 0 550 550" fill="none" xmlns="http://www.w3.org/2000/svg">
<rect width="550" height="550" fill="white"/>
<path d="M91.5438 47.5911L30.8924 70.1816L93.8296 70.4343C155.7 70.687 156.868 70.687 158.494 71.6977C160.831 73.0622 162.151 75.387 162.151 78.015C162.151 80.6429 160.831 82.9677 158.494 84.3322C156.868 85.343 155.802 85.343 90.9342 85.4946L25 85.5957V166.608C25 245.043 25.0508 247.621 25.9651 249.036C27.489 251.36 29.5209 252.371 32.5179 252.371C35.9721 252.371 38.6643 250.703 39.7819 247.873C39.985 247.368 40.3406 247.671 41.1534 248.884C42.6265 251.31 44.7091 252.371 47.9601 252.371C50.9571 252.371 52.989 251.36 54.5129 249.036C56.4432 246.054 56.0368 244.083 47.8585 219.774L40.239 197.032V143.26C40.239 92.3172 40.2898 89.5376 41.1026 89.7903C41.6105 89.8914 66.9073 99.2409 97.3346 110.561C141.121 126.784 153.16 131.08 155.04 131.08C156.919 131.08 169.466 126.633 215.285 109.601C289.854 81.9064 282.184 84.9387 283.759 82.6645C285.638 79.9859 285.638 76.044 283.759 73.3655C282.184 71.0913 289.854 74.1235 215.285 46.4287C165.809 28.0834 157.021 24.9501 154.837 25.0006C152.703 25.0006 141.121 29.1447 91.5438 47.5911Z" fill="#007AFF"/>
<path d="M74.7954 142.144C74.7954 163.608 74.8921 165.783 75.7139 168.703C80.79 186.16 103.753 199.096 136.917 203.217C145.957 204.305 164.231 204.362 173.175 203.217C206.145 199.096 228.818 186.218 233.894 168.76C234.765 165.783 234.813 163.837 234.813 142.087C234.813 120.05 234.765 118.676 233.991 118.962C233.508 119.077 217.699 126.117 198.797 134.531C179.943 142.945 163.168 150.329 161.572 150.901C158.092 152.218 152.339 152.332 149.148 151.13C147.891 150.73 130.777 143.231 111.15 134.588C91.474 125.888 75.2788 118.79 75.0855 118.79C74.9404 118.79 74.7954 129.322 74.7954 142.144Z" fill="#007AFF"/>
<path d="M296.974 75.9996L285.76 63.1113H405.38H525L513.786 89.933H432.434H285.76L296.974 75.9996Z" fill="#007AFF"/>
<path d="M263.746 119.541L276.622 98.293H513.786L504.233 118.281L263.746 119.541Z" fill="#007AFF"/>
<path d="M240.736 156.116L255.923 130.34H499.578L488.683 156.116H240.736Z" fill="#007AFF"/>
<path d="M83.251 197.188L72.686 189.556V445.581C88.9677 506.052 148.695 523.724 176.523 525.001H488.683L504.233 497.831C405.934 498.992 219.387 500.618 176.523 497.831C133.659 495.044 109.652 461.836 103.006 445.581V205.58L83.251 197.188Z" fill="#007AFF"/>
<path d="M146.618 215.791L114.636 211.622V441.749C123.94 475.189 159.771 488.194 176.523 490.516H504.233L513.786 468.919H204.767C157.583 465.018 146.341 449.18 146.618 441.749V215.791Z" fill="#007AFF"/>
<path d="M183.999 213.225L154.094 215.791V429.906C155.423 451.085 174.585 456.379 183.999 456.379H513.786L525 429.906H183.999V213.225Z" fill="#007AFF"/>
<path d="M263.746 407.264V189.556H453.145C467.765 203.49 459.237 222.764 453.145 230.659H304.45V266.886H424.071C442.678 275.803 431.824 291.966 424.071 298.933H304.45V396.814L263.746 407.264Z" fill="#007AFF"/>
</svg>
